<svg id="visual" viewBox="0 0 900 450" width="900" height="450" xmlns="http://www.w3.org/2000/svg" xmlns:xlink="http://www.w3.org/1999/xlink" version="1.1"><path d="M0 170L21.5 172.7C43 175.3 86 180.7 128.8 171.8C171.7 163 214.3 140 257.2 139C300 138 343 159 385.8 165.7C428.7 172.3 471.3 164.7 514.2 157.2C557 149.7 600 142.3 642.8 141.2C685.7 140 728.3 145 771.2 145.8C814 146.7 857 143.3 878.5 141.7L900 140L900 0L878.5 0C857 0 814 0 771.2 0C728.3 0 685.7 0 642.8 0C600 0 557 0 514.2 0C471.3 0 428.7 0 385.8 0C343 0 300 0 257.2 0C214.3 0 171.7 0 128.8 0C86 0 43 0 21.5 0L0 0Z" fill="#e36d67"></path><path d="M0 142L21.5 136.7C43 131.3 86 120.7 128.8 117.8C171.7 115 214.3 120 257.2 123.7C300 127.3 343 129.7 385.8 127.2C428.7 124.7 471.3 117.3 514.2 111.5C557 105.7 600 101.3 642.8 107.8C685.7 114.3 728.3 131.7 771.2 130.2C814 128.7 857 108.3 878.5 98.2L900 88L900 0L878.5 0C857 0 814 0 771.2 0C728.3 0 685.7 0 642.8 0C600 0 557 0 514.2 0C471.3 0 428.7 0 385.8 0C343 0 300 0 257.2 0C214.3 0 171.7 0 128.8 0C86 0 43 0 21.5 0L0 0Z" fill="#d74e49"></path><path d="M0 89L21.5 94.2C43 99.3 86 109.7 128.8 113C171.7 116.3 214.3 112.7 257.2 110.3C300 108 343 107 385.8 106.8C428.7 106.7 471.3 107.3 514.2 107.5C557 107.7 600 107.3 642.8 107C685.7 106.7 728.3 106.3 771.2 101.7C814 97 857 88 878.5 83.5L900 79L900 0L878.5 0C857 0 814 0 771.2 0C728.3 0 685.7 0 642.8 0C600 0 557 0 514.2 0C471.3 0 428.7 0 385.8 0C343 0 300 0 257.2 0C214.3 0 171.7 0 128.8 0C86 0 43 0 21.5 0L0 0Z" fill="#c92a2a"></path><path d="M0 72L21.5 73.8C43 75.7 86 79.3 128.8 79C171.7 78.7 214.3 74.3 257.2 68C300 61.7 343 53.3 385.8 49.5C428.7 45.7 471.3 46.3 514.2 49C557 51.7 600 56.3 642.8 57.5C685.7 58.7 728.3 56.3 771.2 59C814 61.7 857 69.3 878.5 73.2L900 77L900 0L878.5 0C857 0 814 0 771.2 0C728.3 0 685.7 0 642.8 0C600 0 557 0 514.2 0C471.3 0 428.7 0 385.8 0C343 0 300 0 257.2 0C214.3 0 171.7 0 128.8 0C86 0 43 0 21.5 0L0 0Z" fill="#ae2327"></path><path d="M0 47L21.5 45.5C43 44 86 41 128.8 36.3C171.7 31.7 214.3 25.3 257.2 28.2C300 31 343 43 385.8 43.2C428.7 43.3 471.3 31.7 514.2 26.8C557 22 600 24 642.8 25C685.7 26 728.3 26 771.2 29.7C814 33.3 857 40.7 878.5 44.3L900 48L900 0L878.5 0C857 0 814 0 771.2 0C728.3 0 685.7 0 642.8 0C600 0 557 0 514.2 0C471.3 0 428.7 0 385.8 0C343 0 300 0 257.2 0C214.3 0 171.7 0 128.8 0C86 0 43 0 21.5 0L0 0Z" fill="#941d23"></path></svg>