<svg id="visual" viewBox="0 0 900 450" width="900" height="450" xmlns="http://www.w3.org/2000/svg" xmlns:xlink="http://www.w3.org/1999/xlink" version="1.1"><path d="M0 134L21.5 142.7C43 151.3 86 168.7 128.8 166.8C171.7 165 214.3 144 257.2 131.8C300 119.7 343 116.3 385.8 116.8C428.7 117.3 471.3 121.7 514.2 132.5C557 143.3 600 160.7 642.8 160C685.7 159.3 728.3 140.7 771.2 133.5C814 126.3 857 130.7 878.5 132.8L900 135L900 0L878.5 0C857 0 814 0 771.2 0C728.3 0 685.7 0 642.8 0C600 0 557 0 514.2 0C471.3 0 428.7 0 385.8 0C343 0 300 0 257.2 0C214.3 0 171.7 0 128.8 0C86 0 43 0 21.5 0L0 0Z" fill="#e36d67"></path><path d="M0 116L21.5 118.5C43 121 86 126 128.8 129.5C171.7 133 214.3 135 257.2 133.7C300 132.3 343 127.7 385.8 120.7C428.7 113.7 471.3 104.3 514.2 107C557 109.7 600 124.3 642.8 130.3C685.7 136.3 728.3 133.7 771.2 128.3C814 123 857 115 878.5 111L900 107L900 0L878.5 0C857 0 814 0 771.2 0C728.3 0 685.7 0 642.8 0C600 0 557 0 514.2 0C471.3 0 428.7 0 385.8 0C343 0 300 0 257.2 0C214.3 0 171.7 0 128.8 0C86 0 43 0 21.5 0L0 0Z" fill="#dd5e58"></path><path d="M0 96L21.5 97C43 98 86 100 128.8 95.7C171.7 91.3 214.3 80.7 257.2 75.3C300 70 343 70 385.8 69.8C428.7 69.7 471.3 69.3 514.2 70.8C557 72.3 600 75.7 642.8 77.3C685.7 79 728.3 79 771.2 84C814 89 857 99 878.5 104L900 109L900 0L878.5 0C857 0 814 0 771.2 0C728.3 0 685.7 0 642.8 0C600 0 557 0 514.2 0C471.3 0 428.7 0 385.8 0C343 0 300 0 257.2 0C214.3 0 171.7 0 128.8 0C86 0 43 0 21.5 0L0 0Z" fill="#d74e49"></path><path d="M0 82L21.5 76.2C43 70.3 86 58.7 128.8 55.7C171.7 52.7 214.3 58.3 257.2 59C300 59.7 343 55.3 385.8 55.5C428.7 55.7 471.3 60.3 514.2 61C557 61.7 600 58.3 642.8 58C685.7 57.7 728.3 60.3 771.2 65.3C814 70.3 857 77.7 878.5 81.3L900 85L900 0L878.5 0C857 0 814 0 771.2 0C728.3 0 685.7 0 642.8 0C600 0 557 0 514.2 0C471.3 0 428.7 0 385.8 0C343 0 300 0 257.2 0C214.3 0 171.7 0 128.8 0C86 0 43 0 21.5 0L0 0Z" fill="#d03d3a"></path><path d="M0 44L21.5 40.8C43 37.7 86 31.3 128.8 30.2C171.7 29 214.3 33 257.2 36.3C300 39.7 343 42.3 385.8 43.8C428.7 45.3 471.3 45.7 514.2 45.5C557 45.3 600 44.7 642.8 43.3C685.7 42 728.3 40 771.2 40C814 40 857 42 878.5 43L900 44L900 0L878.5 0C857 0 814 0 771.2 0C728.3 0 685.7 0 642.8 0C600 0 557 0 514.2 0C471.3 0 428.7 0 385.8 0C343 0 300 0 257.2 0C214.3 0 171.7 0 128.8 0C86 0 43 0 21.5 0L0 0Z" fill="#c92a2a"></path></svg>