<svg id="visual" viewBox="0 0 900 450" width="900" height="450" xmlns="http://www.w3.org/2000/svg" xmlns:xlink="http://www.w3.org/1999/xlink" version="1.1"><path d="M0 398L21.5 393.7C43 389.3 86 380.7 128.8 379.8C171.7 379 214.3 386 257.2 390.8C300 395.7 343 398.3 385.8 393.3C428.7 388.3 471.3 375.7 514.2 362.7C557 349.7 600 336.3 642.8 333.2C685.7 330 728.3 337 771.2 349.7C814 362.3 857 380.7 878.5 389.8L900 399L900 451L878.5 451C857 451 814 451 771.2 451C728.3 451 685.7 451 642.8 451C600 451 557 451 514.2 451C471.3 451 428.7 451 385.8 451C343 451 300 451 257.2 451C214.3 451 171.7 451 128.8 451C86 451 43 451 21.5 451L0 451Z" fill="#c92a2a" stroke-linecap="round" stroke-linejoin="miter"></path></svg>